<svg xmlns="http://www.w3.org/2000/svg" width="260" height="260" viewBox="0 0 260 260" xmlns:xlink="http://www.w3.org/1999/xlink">
  <title>
    pp-icon-bw
  </title>
  <defs>
    <path id="a" d="M0 0h260v260H0V0z"/>
  </defs>
  <g fill="none" fill-rule="evenodd">
    <path fill="#000" d="M72 260H30c-16.6 0-30-13.4-30-30V30C0 13.4 13.4 0 30 0h69c19.3 0 44.6 15.7 51 24.2 9.7 13 14.8 27.8 16.5 44 3.2 31.3-9.8 69-42.5 84-16.8 6.3-34.2 3-52 3.4V260z"/>
    <mask id="b" fill="#fff">
      <use xlink:href="#a"/>
    </mask>
    <path fill="#110606" d="M186 0c11 0 24.7 10 30.8 16 40 39.4 28.7 118.4-23 136.8-14.8 3.5-35.8 3.4-50.8 2.6-7-.4-7-.7-7 6.2V260h94c16.5 0 30-13.4 30-30V30c0-16.6-13.5-30-30-30h-44z" mask="url(#b)"/>
  </g>
</svg>
